<?xml version="1.0" encoding="UTF-8"?>
<!DOCTYPE svg PUBLIC "-//W3C//DTD SVG 1.1//EN" "http://www.w3.org/Graphics/SVG/1.1/DTD/svg11.dtd">
<!-- Creator: CorelDRAW 2019 (64-Bit) -->
<svg xmlns="http://www.w3.org/2000/svg" xml:space="preserve" width="210mm" height="297mm" version="1.1" shape-rendering="geometricPrecision" text-rendering="geometricPrecision" image-rendering="optimizeQuality" fill-rule="evenodd" clip-rule="evenodd"
viewBox="0 0 21000 29700"
 xmlns:xlink="http://www.w3.org/1999/xlink"
 xmlns:xodm="http://www.corel.com/coreldraw/odm/2003">
 <g id="Capa_x0020_1">
  <metadata id="CorelCorpID_0Corel-Layer"/>
  <polygon fill="#009645" fill-rule="nonzero" points="5289,8759 1601,8759 1601,6876 5289,6876 "/>
  <polygon fill="#006EC7" fill-rule="nonzero" points="5289,6700 1601,6700 1601,4818 5289,4818 "/>
  <polygon fill="#006EC7" fill-rule="nonzero" points="15559,8759 5499,8759 5499,6876 15559,6876 "/>
  <polygon fill="#009645" fill-rule="nonzero" points="15559,6700 5499,6700 5499,4818 15559,4818 "/>
  <path fill="#FEFEFE" fill-rule="nonzero" d="M3625 5247c0,-71 -59,-128 -132,-128 -73,0 -133,57 -133,128 0,71 59,128 133,128 74,0 132,-57 132,-128z"/>
  <path fill="#FEFEFE" fill-rule="nonzero" d="M3229 5525c0,0 8,-289 -211,-289 -219,0 -286,64 -286,64 0,0 55,101 98,101 42,0 103,-78 103,-78 0,0 61,-26 81,67 19,92 50,110 103,110 54,0 73,23 112,23l0 1z"/>
  <path fill="#FEFEFE" fill-rule="nonzero" d="M3433 5484c0,0 4,-74 -46,-74 -50,0 -77,62 -77,89 0,26 50,110 88,110 38,0 37,-98 35,-126l0 0z"/>
  <path fill="#FEFEFE" fill-rule="nonzero" d="M3317 5631c0,0 125,44 125,120 0,76 -161,-70 -125,-120z"/>
  <path fill="#FEFEFE" fill-rule="nonzero" d="M3375 5861c0,0 -23,-46 -48,-46 -25,0 -9,35 -25,50 -15,14 25,43 73,-4z"/>
  <path fill="#FEFEFE" fill-rule="nonzero" d="M3437 6020c0,0 -31,-52 -50,-34 -19,18 -11,92 50,34z"/>
  <path fill="#FEFEFE" fill-rule="nonzero" d="M3384 6194c0,0 -16,107 -165,107 -148,0 -101,-46 -101,-46 0,0 -39,-67 -8,-71 31,-3 274,-19 274,9z"/>
  <path fill="#FEFEFE" fill-rule="nonzero" d="M2597 5356l-298 161c0,0 17,105 175,38 158,-68 248,-153 248,-153 0,0 -19,-89 -125,-44l0 -1z"/>
  <path fill="#FEFEFE" fill-rule="nonzero" d="M2186 5580l-284 131c0,0 57,151 179,97 123,-55 225,-153 225,-153 0,0 -49,-106 -121,-74l1 -1z"/>
  <path fill="#FEFEFE" fill-rule="nonzero" d="M2756 5473l-226 157c0,0 79,80 162,38 83,-42 289,-232 289,-232 0,0 -8,-72 -61,-21 -52,50 -75,72 -75,72 0,0 -70,-26 -88,-12l0 0z"/>
  <path fill="#FEFEFE" fill-rule="nonzero" d="M2409 5693l-307 203c0,0 105,134 210,46 114,-95 275,-198 275,-198 0,0 -118,-50 -179,-50l1 0z"/>
  <path fill="#FEFEFE" fill-rule="nonzero" d="M2653 5769l-363 253c0,0 140,151 219,76 79,-76 239,-230 239,-230 0,0 -7,-98 -95,-98l0 0z"/>
  <path fill="#FEFEFE" fill-rule="nonzero" d="M2851 5870l-317 306c0,0 96,131 186,44 90,-86 227,-282 227,-282 0,0 -63,-99 -96,-68z"/>
  <path fill="#FEFEFE" fill-rule="nonzero" d="M3126 5582l-218 214c0,0 65,116 128,39 62,-77 150,-200 150,-200 0,0 -13,-54 -60,-54l0 1z"/>
  <path fill="#FEFEFE" fill-rule="nonzero" d="M3066 5919l-316 347c0,0 99,108 180,3 80,-105 214,-313 214,-313 0,0 -2,-49 -78,-37l0 0z"/>
  <path fill="#FEFEFE" fill-rule="nonzero" d="M3244 5692l-118 144c0,0 60,76 107,11 47,-64 46,-102 46,-102 0,0 2,-59 -36,-53l0 0z"/>
  <path fill="#FEFEFE" fill-rule="nonzero" d="M3265 5927l-131 148c0,0 101,33 123,-6 21,-39 58,-99 58,-99 0,0 -10,-52 -50,-43z"/>
  <path fill="#FEFEFE" fill-rule="nonzero" d="M2946 5539l-206 162c0,0 69,120 143,47 75,-73 167,-170 167,-170 0,0 -39,-67 -104,-39l0 0z"/>
  <path fill="#FEFEFE" fill-rule="nonzero" d="M3757 5525c0,0 -7,-289 211,-289 219,0 286,64 286,64 0,0 -55,101 -98,101 -42,0 -103,-78 -103,-78 0,0 -61,-26 -81,67 -19,92 -50,110 -103,110 -54,0 -73,23 -112,23l0 1z"/>
  <path fill="#FEFEFE" fill-rule="nonzero" d="M3554 5484c0,0 -4,-74 46,-74 50,0 77,62 77,89 0,26 -50,110 -88,110 -38,0 -37,-98 -35,-126l0 0z"/>
  <path fill="#FEFEFE" fill-rule="nonzero" d="M3669 5631c0,0 -125,44 -125,120 0,76 161,-70 125,-120z"/>
  <path fill="#FEFEFE" fill-rule="nonzero" d="M3612 5861c0,0 24,-46 48,-46 25,0 9,35 25,50 15,14 -25,43 -73,-4z"/>
  <path fill="#FEFEFE" fill-rule="nonzero" d="M3550 6020c0,0 31,-52 50,-34 19,18 11,92 -50,34z"/>
  <path fill="#FEFEFE" fill-rule="nonzero" d="M3603 6194c0,0 16,107 165,107 148,0 101,-46 101,-46 0,0 39,-67 8,-71 -31,-3 -274,-19 -274,9z"/>
  <path fill="#FEFEFE" fill-rule="nonzero" d="M4390 5356l298 161c0,0 -17,105 -175,38 -158,-68 -248,-153 -248,-153 0,0 19,-89 125,-44l0 -1z"/>
  <path fill="#FEFEFE" fill-rule="nonzero" d="M4802 5580l284 131c0,0 -57,151 -180,97 -123,-55 -225,-153 -225,-153 0,0 49,-106 121,-74l0 -1z"/>
  <path fill="#FEFEFE" fill-rule="nonzero" d="M4229 5473l226 157c0,0 -79,80 -162,38 -83,-42 -289,-232 -289,-232 0,0 8,-72 61,-21 52,50 75,72 75,72 0,0 70,-26 88,-12l0 0z"/>
  <path fill="#FEFEFE" fill-rule="nonzero" d="M4579 5693l306 203c0,0 -104,134 -210,46 -114,-95 -272,-189 -272,-189 0,0 114,-59 175,-59l1 0z"/>
  <path fill="#FEFEFE" fill-rule="nonzero" d="M4333 5769l363 253c0,0 -140,151 -219,76 -79,-76 -240,-219 -240,-219 0,0 9,-109 96,-109z"/>
  <path fill="#FEFEFE" fill-rule="nonzero" d="M4136 5870l317 306c0,0 -96,131 -186,44 -90,-86 -227,-282 -227,-282 0,0 63,-99 96,-68z"/>
  <path fill="#FEFEFE" fill-rule="nonzero" d="M3861 5582l218 214c0,0 -65,116 -128,39 -62,-77 -150,-200 -150,-200 0,0 13,-54 60,-54l0 1z"/>
  <path fill="#FEFEFE" fill-rule="nonzero" d="M3939 5909l307 348c0,0 -109,118 -189,12 -80,-105 -214,-313 -214,-313 0,0 21,-59 96,-47z"/>
  <path fill="#FEFEFE" fill-rule="nonzero" d="M3742 5692l118 144c0,0 -60,76 -107,11 -47,-64 -46,-102 -46,-102 0,0 -2,-59 36,-53l0 0z"/>
  <path fill="#FEFEFE" fill-rule="nonzero" d="M3722 5927l131 148c0,0 -101,33 -123,-6 -21,-39 -59,-99 -59,-99 0,0 10,-52 51,-43z"/>
  <path fill="#FEFEFE" fill-rule="nonzero" d="M4040 5539l206 162c0,0 -69,120 -143,47 -75,-73 -167,-170 -167,-170 0,0 39,-67 104,-39l0 0z"/>
  <path fill="#FEFEFE" fill-rule="nonzero" d="M3146 6211c0,0 -326,58 -164,299 163,241 772,129 772,412 0,119 -153,224 -153,224 0,0 65,45 88,67 0,0 196,-136 196,-284 0,-148 -169,-232 -419,-294 -251,-61 -454,-127 -454,-257 0,-131 135,-167 135,-167l-1 0z"/>
  <path fill="#FEFEFE" fill-rule="nonzero" d="M3293 7266c0,0 28,20 70,35 0,0 -76,20 -76,131 0,110 365,215 365,372 0,114 -94,192 -94,192 0,0 -9,-38 -33,-38 0,0 70,-82 70,-136 0,-55 -82,-137 -184,-186 -102,-49 -232,-131 -232,-235 0,-104 115,-134 115,-134l0 -1z"/>
  <path fill="#FEFEFE" fill-rule="nonzero" d="M3400 8060c0,0 12,21 34,42 0,0 -32,18 -32,65 0,46 159,166 159,200 0,34 0,49 -12,49 -12,0 2,-19 -18,-40 -21,-20 -182,-131 -182,-229 0,-65 53,-87 53,-87l-1 0z"/>
  <path fill="#FEFEFE" fill-rule="nonzero" d="M3845 6234c0,0 143,58 124,136 -19,77 -134,220 -326,244 0,0 75,27 99,49 0,0 298,-83 298,-265 0,-182 -194,-164 -194,-164l0 0z"/>
  <path fill="#FEFEFE" fill-rule="nonzero" d="M3240 6721c0,0 70,38 92,38 0,0 -124,2 -124,165 0,164 572,296 572,505 0,114 -161,208 -161,208 0,0 -28,-32 -53,-32 0,0 83,-74 83,-188 0,-114 -287,-228 -287,-228 0,0 -299,-101 -299,-287 0,-168 177,-180 177,-180l0 0z"/>
  <path fill="#FEFEFE" fill-rule="nonzero" d="M3377 7675c0,0 14,28 33,46 0,0 -48,25 -48,104 0,80 242,234 242,326 0,68 -60,104 -60,104 0,0 -15,-37 -23,-37 0,0 26,-25 26,-74 0,-49 -80,-126 -117,-162 -37,-36 -126,-61 -142,-174 0,-64 89,-135 89,-135l0 0z"/>
  <path fill="#FEFEFE" fill-rule="nonzero" d="M3419 8340l29 28c0,0 -37,76 -57,55 -20,-20 29,-83 29,-83l0 0z"/>
  <polygon fill="#FEFEFE" fill-rule="nonzero" points="3479,5442 3513,5442 3513,6541 3479,6541 "/>
  <polygon fill="#FEFEFE" fill-rule="nonzero" points="3479,6792 3513,6792 3513,7120 3479,7120 "/>
  <polygon fill="#FEFEFE" fill-rule="nonzero" points="3479,7345 3513,7345 3513,7524 3479,7524 "/>
  <polygon fill="#FEFEFE" fill-rule="nonzero" points="3479,7779 3513,7779 3513,7898 3479,7898 "/>
  <polygon fill="#FEFEFE" fill-rule="nonzero" points="3479,8128 3513,8128 3513,8200 3479,8200 "/>
  <polygon fill="#FEFEFE" fill-rule="nonzero" points="7035,5341 6651,6305 6480,6305 6094,5341 6261,5341 6568,6161 6881,5341 "/>
  <path fill="#FEFEFE" fill-rule="nonzero" d="M7782 5341l0 123 -263 0c-48,0 -86,3 -113,10 -27,7 -50,19 -72,38 -29,25 -51,56 -64,94 -14,38 -24,88 -27,151l538 0 0 123 -538 0c-1,70 13,132 43,188 23,41 50,71 84,88 34,17 81,26 141,26l454 0 0 123 -481 0c-76,0 -137,-9 -184,-28 -84,-33 -146,-104 -185,-215 -21,-59 -32,-133 -32,-220 0,-117 17,-211 51,-282 38,-80 87,-136 145,-169 59,-33 141,-49 246,-49l254 0 2 -1z"/>
  <path fill="#FEFEFE" fill-rule="nonzero" d="M8086 5896l0 409 -144 0 0 -964 410 0c119,0 201,17 248,51 31,24 55,53 73,91 17,38 27,79 27,124 0,83 -25,148 -75,194 -28,25 -64,44 -112,58 60,29 102,62 124,102 21,40 36,104 42,195 3,59 6,94 8,106 2,11 7,26 15,41l-147 0c-5,-10 -8,-20 -10,-31 -1,-10 -4,-46 -10,-108 -9,-102 -35,-173 -79,-212 -44,-39 -120,-58 -227,-58l-143 0 1 0zm0 -123l257 0c76,0 127,-10 151,-29 35,-29 53,-71 53,-126 0,-64 -19,-108 -57,-133 -21,-14 -71,-21 -146,-21l-257 0 0 309 -1 0z"/>
  <path fill="#FEFEFE" fill-rule="nonzero" d="M8737 6305l372 -964 189 0 358 964 -153 0 -92 -252 -427 0 -96 252 -153 0 2 0zm464 -849l-173 474 337 0 -164 -474 0 0z"/>
  <polygon fill="#FEFEFE" fill-rule="nonzero" points="10251,5341 10546,6127 10819,5341 11031,5341 11031,6305 10892,6305 10892,5486 10612,6305 10468,6305 10178,5486 10178,6305 10039,6305 10039,5341 "/>
  <path fill="#FEFEFE" fill-rule="nonzero" d="M11869 5341l0 123 -263 0c-48,0 -86,3 -113,10 -27,7 -50,19 -72,38 -29,25 -51,56 -64,94 -14,38 -24,88 -27,151l538 0 0 123 -538 0c-1,70 13,132 43,188 23,41 50,71 84,88 34,17 81,26 141,26l492 0 0 123 -519 0c-76,0 -137,-9 -184,-28 -85,-33 -146,-104 -185,-215 -21,-59 -32,-133 -32,-220 0,-117 17,-211 51,-282 38,-80 87,-136 145,-169 59,-33 141,-49 246,-49l254 0 2 -1z"/>
  <path fill="#FEFEFE" fill-rule="nonzero" d="M12029 5341l346 0c95,0 166,7 210,21 83,28 147,90 193,187 32,69 48,157 48,264 0,215 -54,360 -164,434 -34,23 -69,38 -105,46 -37,8 -93,11 -169,11l-359 0 41 -123 333 0c102,0 174,-32 214,-95 38,-58 56,-142 56,-252 0,-125 -21,-219 -64,-283 -20,-31 -47,-53 -81,-67 -33,-13 -78,-20 -135,-20l-220 0 -143 -123 0 -1z"/>
  <polygon fill="#FEFEFE" fill-rule="nonzero" points="12955,5341 13099,5341 13099,6305 12955,6305 "/>
  <polygon fill="#FEFEFE" fill-rule="nonzero" points="12025,5341 12169,5341 12169,5902 12025,5902 "/>
  <path fill="#FEFEFE" fill-rule="nonzero" d="M13953 6182l0 123 -279 0c-80,0 -143,-7 -190,-21 -93,-29 -163,-94 -207,-200 -32,-75 -48,-160 -48,-255 0,-113 21,-212 65,-298 36,-71 82,-121 136,-149 55,-29 134,-42 236,-42l287 0 0 123 -279 0c-61,0 -107,5 -138,15 -31,10 -57,29 -79,56 -24,30 -42,72 -56,125 -13,53 -20,110 -20,174 0,119 26,210 78,272 25,30 52,49 85,59 32,10 80,15 142,15l268 0 -1 2z"/>
  <path fill="#FEFEFE" fill-rule="nonzero" d="M14022 6305l372 -964 189 0 358 964 -152 0 -92 -252 -427 0 -95 252 -153 0 0 0zm464 -849l-173 474 337 0 -164 -474 0 0z"/>
  <polygon fill="#FEFEFE" fill-rule="nonzero" points="6122,7999 6122,7567 6212,7567 6212,7926 6373,7926 6373,7999 "/>
  <path fill="#FEFEFE" fill-rule="nonzero" d="M6513 7999l108 -433 120 0 109 433 -96 0 -24 -108 -103 0 -24 108 -91 0 0 0zm129 -174l76 0 -38 -181 -38 181 0 0z"/>
  <path fill="#FEFEFE" fill-rule="nonzero" d="M7012 7999l0 -433 143 0c41,0 72,8 92,26 20,17 30,44 30,80 0,29 -5,51 -14,67 -10,15 -25,26 -44,29 23,3 40,13 52,31 12,17 18,40 18,69 0,46 -10,80 -32,101 -21,21 -54,33 -99,33l-146 0 0 -1zm87 -257l30 0c23,0 38,-4 46,-13 8,-9 12,-25 12,-49 0,-21 -4,-36 -13,-43 -8,-8 -25,-11 -49,-11l-28 0 0 117 2 0zm0 195l37 0c24,0 39,-5 49,-15 9,-10 14,-28 14,-53 0,-27 -5,-44 -15,-54 -10,-10 -30,-15 -57,-15l-27 0 0 138 -1 0z"/>
  <path fill="#FEFEFE" fill-rule="nonzero" d="M7466 7784c0,-46 2,-83 7,-110 5,-28 12,-48 23,-62 14,-19 31,-34 50,-42 19,-8 45,-12 77,-12 32,0 57,4 77,12 19,8 36,23 50,42 10,14 17,35 23,62 5,28 7,63 7,109 0,46 -2,82 -7,109 -5,28 -12,48 -23,62 -14,19 -31,34 -50,42 -19,8 -45,12 -77,12 -32,0 -57,-4 -77,-12 -19,-8 -36,-23 -50,-42 -10,-14 -17,-35 -23,-62 -5,-28 -7,-64 -7,-110l0 2zm91 0c0,72 5,116 14,134 9,18 27,28 51,28 25,0 41,-9 50,-28 9,-18 13,-63 13,-135 0,-72 -4,-117 -13,-135 -9,-18 -26,-28 -51,-28 -25,0 -42,9 -50,28 -9,18 -13,63 -13,135l-1 1z"/>
  <path fill="#FEFEFE" fill-rule="nonzero" d="M7965 7999l0 -433 161 0c48,0 83,9 104,27 21,17 32,47 32,87 0,28 -6,50 -17,67 -11,16 -29,26 -50,29 42,10 64,42 67,97l0 5 2 57c1,16 3,30 7,39 4,10 9,18 17,26l-106 0c-2,-7 -4,-16 -5,-26 -1,-10 -2,-24 -2,-42l-1 -45 0 -11c0,-26 -6,-42 -17,-52 -12,-9 -36,-14 -73,-14l-31 0 0 190 -86 0 -1 0zm86 -250l51 0c26,0 44,-5 54,-14 10,-9 15,-27 15,-50 0,-21 -5,-37 -16,-45 -11,-8 -31,-13 -60,-13l-44 0 0 123z"/>
  <path fill="#FEFEFE" fill-rule="nonzero" d="M8413 7999l108 -433 120 0 109 433 -96 0 -24 -108 -103 0 -24 108 -91 0 0 0zm129 -174l76 0 -38 -181 -38 181 0 0z"/>
  <polygon fill="#FEFEFE" fill-rule="nonzero" points="8946,7999 8946,7638 8843,7638 8843,7567 9138,7567 9138,7638 9035,7638 9035,7999 "/>
  <path fill="#FEFEFE" fill-rule="nonzero" d="M9290 7784c0,-46 2,-83 7,-110 5,-28 12,-48 23,-62 14,-19 31,-34 50,-42 19,-8 45,-12 77,-12 32,0 57,4 77,12 19,8 36,23 50,42 10,14 17,35 23,62 5,28 7,63 7,109 0,46 -2,82 -7,109 -5,28 -12,48 -23,62 -14,19 -31,34 -50,42 -19,8 -45,12 -77,12 -32,0 -57,-4 -77,-12 -19,-8 -36,-23 -50,-42 -10,-14 -17,-35 -23,-62 -5,-28 -7,-64 -7,-110l0 2zm91 0c0,72 5,116 14,134 9,18 27,28 51,28 25,0 41,-9 50,-28 9,-18 13,-63 13,-135 0,-72 -4,-117 -13,-135 -9,-18 -26,-28 -51,-28 -25,0 -42,9 -51,28 -9,18 -13,63 -13,135l0 1z"/>
  <path fill="#FEFEFE" fill-rule="nonzero" d="M9789 7999l0 -433 161 0c48,0 83,9 104,27 21,17 32,47 32,87 0,28 -6,50 -17,67 -11,16 -29,26 -50,29 42,10 64,42 67,97l0 5 2 57c1,16 3,30 7,39 4,10 9,18 17,26l-106 0c-2,-7 -4,-16 -5,-26 -1,-10 -2,-24 -2,-42l-1 -45 0 -11c0,-26 -6,-42 -17,-52 -12,-9 -36,-14 -73,-14l-31 0 0 190 -86 0 -1 0zm86 -250l51 0c26,0 44,-5 54,-14 10,-9 15,-27 15,-50 0,-21 -5,-37 -16,-45 -11,-8 -31,-13 -60,-13l-44 0 0 123z"/>
  <polygon fill="#FEFEFE" fill-rule="nonzero" points="10273,7567 10362,7567 10362,7999 10273,7999 "/>
  <path fill="#FEFEFE" fill-rule="nonzero" d="M10549 7784c0,-46 2,-83 7,-110 5,-28 12,-48 23,-62 14,-19 31,-34 50,-42 19,-8 45,-12 77,-12 32,0 57,4 77,12 19,8 36,23 50,42 10,14 17,35 23,62 5,28 7,63 7,109 0,46 -2,82 -7,109 -5,28 -12,48 -23,62 -14,19 -31,34 -50,42 -19,8 -45,12 -77,12 -32,0 -57,-4 -77,-12 -19,-8 -36,-23 -50,-42 -10,-14 -17,-35 -23,-62 -5,-28 -7,-64 -7,-110l0 2zm91 0c0,72 5,116 14,134 9,18 27,28 51,28 25,0 41,-9 50,-28 9,-18 13,-63 13,-135 0,-72 -4,-117 -13,-135 -9,-18 -26,-28 -51,-28 -25,0 -42,9 -51,28 -9,18 -13,63 -13,135l0 1z"/>
  <path fill="#FEFEFE" fill-rule="nonzero" d="M11039 7848l89 0 0 28c0,27 4,45 11,54 7,9 20,14 38,14 18,0 34,-4 43,-13 10,-8 14,-21 14,-38 0,-13 -3,-25 -10,-34 -7,-9 -21,-21 -45,-36l-46 -30c-40,-25 -64,-45 -76,-61 -10,-16 -16,-37 -16,-60 0,-37 12,-64 36,-86 24,-20 57,-31 99,-31 44,0 79,11 102,33 24,21 36,53 36,94 0,4 0,7 0,9 0,2 0,4 0,6l-85 0 0 -11c0,-24 -4,-40 -13,-50 -8,-10 -23,-15 -42,-15 -14,0 -26,4 -34,11 -8,7 -12,18 -12,32 0,18 18,38 55,60 0,0 1,0 1,1l49 30c35,21 59,41 72,59 12,18 18,42 18,72 0,39 -12,70 -38,91 -25,21 -60,32 -107,32 -48,0 -84,-11 -107,-34 -24,-23 -36,-56 -36,-103 0,-5 0,-13 1,-25l0 -2 3 3z"/>
  <path fill="#FEFEFE" fill-rule="nonzero" d="M11979 7845l87 0c0,2 0,5 0,8 0,4 0,6 0,8 0,50 -11,87 -35,112 -24,25 -59,37 -107,37 -23,0 -43,-3 -59,-8 -16,-5 -31,-13 -42,-25 -16,-15 -28,-36 -34,-61 -7,-27 -10,-72 -10,-137 0,-45 2,-80 6,-106 4,-27 10,-46 18,-59 13,-19 29,-34 48,-43 19,-9 44,-13 74,-13 49,0 84,11 106,35 23,23 34,59 34,110l-87 0 0 -10c0,-24 -4,-41 -12,-52 -8,-11 -21,-17 -39,-17 -21,0 -36,8 -44,24 -8,16 -11,60 -11,132 0,78 4,125 11,142 7,16 23,26 43,26 20,0 34,-6 42,-19 8,-13 12,-38 12,-74l0 -6 -1 -1z"/>
  <polygon fill="#FEFEFE" fill-rule="nonzero" points="12252,7999 12252,7567 12342,7567 12342,7926 12502,7926 12502,7999 "/>
  <polygon fill="#FEFEFE" fill-rule="nonzero" points="12678,7567 12767,7567 12767,7999 12678,7999 "/>
  <polygon fill="#FEFEFE" fill-rule="nonzero" points="12964,7999 12964,7567 13056,7567 13181,7869 13179,7567 13264,7567 13264,7999 13171,7999 13046,7697 13049,7999 "/>
  <polygon fill="#FEFEFE" fill-rule="nonzero" points="13460,7567 13549,7567 13549,7999 13460,7999 "/>
  <path fill="#FEFEFE" fill-rule="nonzero" d="M13937 7845l87 0c0,2 0,5 0,8 0,4 0,6 0,8 0,50 -11,87 -35,112 -24,25 -59,37 -107,37 -23,0 -43,-3 -59,-8 -16,-5 -31,-13 -42,-25 -16,-15 -28,-36 -34,-61 -7,-27 -10,-72 -10,-137 0,-45 2,-80 6,-106 4,-27 10,-46 18,-59 13,-19 29,-34 48,-43 19,-9 44,-13 74,-13 49,0 84,11 106,35 23,23 34,59 34,110l-87 0 0 -10c0,-24 -4,-41 -12,-52 -8,-11 -21,-17 -39,-17 -21,0 -36,8 -44,24 -8,16 -11,60 -11,132 0,78 4,125 11,142 7,16 23,26 43,26 20,0 34,-6 42,-19 8,-13 12,-38 12,-74l0 -6 -1 -1z"/>
  <path fill="#FEFEFE" fill-rule="nonzero" d="M14201 7784c0,-46 2,-83 7,-110 5,-28 12,-48 23,-62 14,-19 31,-34 50,-42 19,-8 45,-12 77,-12 32,0 57,4 77,12 19,8 36,23 50,42 10,14 17,35 23,62 5,28 7,63 7,109 0,46 -2,82 -7,109 -5,28 -12,48 -23,62 -14,19 -31,34 -50,42 -19,8 -45,12 -77,12 -32,0 -57,-4 -77,-12 -19,-8 -36,-23 -50,-42 -10,-14 -17,-35 -23,-62 -5,-28 -7,-64 -7,-110l0 2zm91 0c0,72 5,116 14,134 9,18 27,28 51,28 25,0 41,-9 50,-28 9,-18 13,-63 13,-135 0,-72 -4,-117 -13,-135 -9,-18 -26,-28 -51,-28 -25,0 -42,9 -51,28 -9,18 -13,56 -13,128l0 8z"/>
  <path fill="#FEFEFE" fill-rule="nonzero" d="M14691 7848l89 0 0 28c0,27 4,45 11,54 7,9 20,14 38,14 18,0 34,-4 43,-13 10,-8 14,-21 14,-38 0,-13 -3,-25 -10,-34 -7,-9 -21,-21 -45,-36l-46 -30c-40,-25 -64,-45 -76,-61 -10,-16 -16,-37 -16,-60 0,-37 12,-64 36,-86 24,-20 57,-31 99,-31 44,0 79,11 102,33 24,21 36,53 36,94 0,5 0,10 0,15l-85 0 0 -11c0,-24 -4,-40 -13,-50 -8,-10 -23,-15 -42,-15 -14,0 -26,4 -34,11 -8,7 -12,18 -12,32 0,18 18,38 55,60 0,0 44,27 50,31 35,21 59,41 72,59 12,18 18,42 18,72 0,39 -12,70 -38,91 -25,21 -60,32 -106,32 -48,0 -84,-11 -107,-34 -24,-23 -36,-56 -36,-103 0,-5 0,-13 1,-25l0 -2 2 3z"/>
 </g>
</svg>
